0
SECTION
2
HEADER
9
$INSUNITS
70
4
0
ENDSEC
0
SECTION
2
TABLES
0
TABLE
2
LTYPE
0
LTYPE
72
65
70
64
2
CONTINUOUS
3
______
73
0
40
0
0
ENDTAB
0
TABLE
2
LAYER
0
ENDTAB
0
ENDSEC
0
SECTION
2
ENTITIES
0
LINE
8
0
10
90
20
-160
11
90
21
-83
0
LINE
8
0
10
90
20
-83
11
109
21
-83
0
LINE
8
0
10
109
20
-83
11
109
21
-81.1
0
LINE
8
0
10
109
20
-81.1
11
128
21
-81.1
0
LINE
8
0
10
128
20
-81.1
11
128
21
-68.56
0
LINE
8
0
10
128
20
-68.56
11
147
21
-68.56
0
LINE
8
0
10
147
20
-68.56
11
147
21
-63.81
0
LINE
8
0
10
147
20
-63.81
11
167
21
-63.81
0
LINE
8
0
10
167
20
-68.56
11
167
21
-63.81
0
LINE
8
0
10
167
20
-68.56
11
186
21
-68.56
0
LINE
8
0
10
186
20
-71.41
11
186
21
-68.56
0
LINE
8
0
10
186
20
-71.41
11
224
21
-71.41
0
LINE
8
0
10
224
20
-167.41
11
224
21
-71.41
0
LINE
8
0
10
166.5
20
-167.41
11
224
21
-167.41
0
LINE
8
0
10
147.2742905
20
-170.5419278
11
166.5
21
-167.41
0
LINE
8
0
10
110
20
-158.1
11
128
21
-158.1
0
LINE
8
0
10
110
20
-160
11
110
21
-158.1
0
LINE
8
0
10
90
20
-160
11
110
21
-160
0
LINE
8
0
10
128
20
-158.1
11
147.2742905
21
-170.5419278
0
LINE
8
0
10
91
20
-159
11
109
21
-159
0
LINE
8
0
10
109
20
-159
11
109
21
-141
0
LINE
8
0
10
109
20
-141
11
91
21
-141
0
LINE
8
0
10
91
20
-141
11
91
21
-159
0
LINE
8
0
10
91
20
-140
11
108.496257
21
-140
0
LINE
8
0
10
109
20
-138.5702041
11
109
21
-122
0
LINE
8
0
10
109
20
-122
11
91
21
-122
0
LINE
8
0
10
91
20
-122
11
91
21
-140
0
LINE
8
0
10
91
20
-121
11
108.496257
21
-121
0
LINE
8
0
10
109
20
-119.5702041
11
109
21
-103
0
LINE
8
0
10
109
20
-103
11
91
21
-103
0
LINE
8
0
10
91
20
-103
11
91
21
-121
0
LINE
8
0
10
91
20
-102
11
108.496257
21
-102
0
LINE
8
0
10
109
20
-100.5702041
11
109
21
-84
0
LINE
8
0
10
109
20
-84
11
91
21
-84
0
LINE
8
0
10
91
20
-84
11
91
21
-102
0
LINE
8
0
10
110
20
-157.1
11
128
21
-157.1
0
LINE
8
0
10
128
20
-157.1
11
128
21
-139.1
0
LINE
8
0
10
128
20
-139.1
11
110.503743
21
-139.1
0
LINE
8
0
10
110
20
-140.5297959
11
110
21
-157.1
0
LINE
8
0
10
110
20
-138.1
11
128
21
-138.1
0
LINE
8
0
10
128
20
-138.1
11
128
21
-120.1
0
LINE
8
0
10
128
20
-120.1
11
110.503743
21
-120.1
0
LINE
8
0
10
110
20
-121.5297959
11
110
21
-138.1
0
LINE
8
0
10
110
20
-119.1
11
128
21
-119.1
0
LINE
8
0
10
128
20
-119.1
11
128
21
-101.1
0
LINE
8
0
10
128
20
-101.1
11
110.503743
21
-101.1
0
LINE
8
0
10
110
20
-102.5297959
11
110
21
-119.1
0
LINE
8
0
10
110
20
-100.1
11
128
21
-100.1
0
LINE
8
0
10
128
20
-100.1
11
128
21
-82.1
0
LINE
8
0
10
128
20
-82.1
11
110
21
-82.1
0
LINE
8
0
10
110
20
-82.1
11
110
21
-100.1
0
LINE
8
0
10
129
20
-144.56
11
147
21
-144.56
0
LINE
8
0
10
147
20
-144.56
11
147
21
-126.56
0
LINE
8
0
10
147
20
-126.56
11
129
21
-126.56
0
LINE
8
0
10
129
20
-126.56
11
129
21
-144.56
0
LINE
8
0
10
129
20
-125.56
11
147
21
-125.56
0
LINE
8
0
10
147
20
-125.56
11
147
21
-107.56
0
LINE
8
0
10
147
20
-107.56
11
129
21
-107.56
0
LINE
8
0
10
129
20
-107.56
11
129
21
-125.56
0
LINE
8
0
10
129
20
-106.56
11
147
21
-106.56
0
LINE
8
0
10
147
20
-106.56
11
147
21
-88.56
0
LINE
8
0
10
147
20
-88.56
11
129
21
-88.56
0
LINE
8
0
10
129
20
-88.56
11
129
21
-106.56
0
LINE
8
0
10
129
20
-87.56
11
147
21
-87.56
0
LINE
8
0
10
147
20
-87.56
11
147
21
-69.56
0
LINE
8
0
10
147
20
-69.56
11
129
21
-69.56
0
LINE
8
0
10
129
20
-69.56
11
129
21
-87.56
0
LINE
8
0
10
148
20
-139.81
11
166
21
-139.81
0
LINE
8
0
10
166
20
-139.81
11
166
21
-121.81
0
LINE
8
0
10
166
20
-121.81
11
148
21
-121.81
0
LINE
8
0
10
148
20
-121.81
11
148
21
-139.81
0
LINE
8
0
10
148
20
-120.81
11
166
21
-120.81
0
LINE
8
0
10
166
20
-120.81
11
166
21
-102.81
0
LINE
8
0
10
166
20
-102.81
11
148
21
-102.81
0
LINE
8
0
10
148
20
-102.81
11
148
21
-120.81
0
LINE
8
0
10
148
20
-101.81
11
166
21
-101.81
0
LINE
8
0
10
166
20
-101.81
11
166
21
-83.81
0
LINE
8
0
10
166
20
-83.81
11
148
21
-83.81
0
LINE
8
0
10
148
20
-83.81
11
148
21
-101.81
0
LINE
8
0
10
148
20
-82.81
11
166
21
-82.81
0
LINE
8
0
10
166
20
-82.81
11
166
21
-64.81
0
LINE
8
0
10
166
20
-64.81
11
148
21
-64.81
0
LINE
8
0
10
148
20
-64.81
11
148
21
-82.81
0
LINE
8
0
10
167
20
-144.56
11
185
21
-144.56
0
LINE
8
0
10
185
20
-144.56
11
185
21
-128.4647959
0
LINE
8
0
10
184.904706
20
-126.56
11
167
21
-126.56
0
LINE
8
0
10
167
20
-126.56
11
167
21
-144.56
0
LINE
8
0
10
167
20
-125.56
11
185
21
-125.56
0
LINE
8
0
10
185
20
-125.56
11
185
21
-109.4647959
0
LINE
8
0
10
184.904706
20
-107.56
11
167
21
-107.56
0
LINE
8
0
10
167
20
-107.56
11
167
21
-125.56
0
LINE
8
0
10
167
20
-106.56
11
185
21
-106.56
0
LINE
8
0
10
185
20
-106.56
11
185
21
-90.4647959
0
LINE
8
0
10
184.904706
20
-88.56
11
167
21
-88.56
0
LINE
8
0
10
167
20
-88.56
11
167
21
-106.56
0
LINE
8
0
10
167
20
-87.56
11
185
21
-87.56
0
LINE
8
0
10
185
20
-87.56
11
185
21
-69.56
0
LINE
8
0
10
185
20
-69.56
11
167
21
-69.56
0
LINE
8
0
10
167
20
-69.56
11
167
21
-87.56
0
LINE
8
0
10
186
20
-147.41
11
203.4
21
-147.41
0
LINE
8
0
10
204
20
-146.4302041
11
204
21
-129.8897959
0
LINE
8
0
10
203.5202041
20
-129.41
11
186
21
-129.41
0
LINE
8
0
10
186
20
-129.41
11
186
21
-147.41
0
LINE
8
0
10
186.095294
20
-128.41
11
203.5202041
21
-128.41
0
LINE
8
0
10
204
20
-127.9302041
11
204
21
-71.41
0
LINE
8
0
10
186
20
-110.41
11
224
21
-110.41
0
LINE
8
0
10
186
20
-110.41
11
186
21
-126.5052041
0
LINE
8
0
10
186.095294
20
-109.41
11
204
21
-109.41
0
LINE
8
0
10
204
20
-91.41
11
186
21
-91.41
0
LINE
8
0
10
186
20
-91.41
11
186
21
-107.5052041
0
LINE
8
0
10
186.095294
20
-90.41
11
204
21
-90.41
0
LINE
8
0
10
204
20
-72.41
11
186
21
-72.41
0
LINE
8
0
10
186
20
-72.41
11
186
21
-88.5052041
0
LINE
8
0
10
148.2745638
20
-169.5461034
11
166.0011034
21
-166.4204362
0
LINE
8
0
10
166.0011034
20
-166.4204362
11
162.8754362
21
-148.6938966
0
LINE
8
0
10
162.8754362
20
-148.6938966
11
145.1488966
21
-151.8195638
0
LINE
8
0
10
145.1488966
20
-151.8195638
11
148.2745638
21
-169.5461034
0
LINE
8
0
10
167
20
-166.41
11
185
21
-166.41
0
LINE
8
0
10
185
20
-166.41
11
185
21
-148.41
0
LINE
8
0
10
185
20
-148.41
11
167
21
-148.41
0
LINE
8
0
10
167
20
-148.41
11
167
21
-166.41
0
LINE
8
0
10
186
20
-166.41
11
213
21
-166.41
0
LINE
8
0
10
186
20
-148.41
11
204.0417424
21
-148.41
0
LINE
8
0
10
204.9582576
20
-148.41
11
213
21
-148.41
0
LINE
8
0
10
205.6
20
-147.41
11
224
21
-147.41
0
LINE
8
0
10
223
20
-147.41
11
223
21
-129.41
0
LINE
8
0
10
223
20
-129.41
11
205.4797959
21
-129.41
0
LINE
8
0
10
205
20
-129.8897959
11
205
21
-146.4302041
0
LINE
8
0
10
205.4797959
20
-128.41
11
223
21
-128.41
0
LINE
8
0
10
223
20
-128.41
11
223
21
-110.41
0
LINE
8
0
10
205
20
-110.41
11
205
21
-127.9302041
0
LINE
8
0
10
213
20
-166.41
11
213
21
-148.41
0
LINE
8
0
10
186
20
-148.41
11
186
21
-166.41
0
ARC
8
0
10
109.5
20
-101.55
40
1.1
50
204.1477398
51
297.0356917
0
ARC
8
0
10
109.5
20
-101.55
40
1.1
50
384.1477398
51
477.0356917
0
ARC
8
0
10
109.5
20
-120.55
40
1.1
50
204.1477398
51
297.0356917
0
ARC
8
0
10
109.5
20
-120.55
40
1.1
50
384.1477398
51
477.0356917
0
ARC
8
0
10
109.5
20
-139.55
40
1.1
50
204.1477398
51
297.0356917
0
ARC
8
0
10
109.5
20
-139.55
40
1.1
50
384.1477398
51
477.0356917
0
CIRCLE
8
0
10
156.2875
20
-144.965
40
1.1
0
ARC
8
0
10
185.5
20
-89.485
40
1.1
50
242.9643083
51
302.7637558
0
ARC
8
0
10
185.5
20
-89.485
40
1.1
50
422.9643083
51
482.7637558
0
ARC
8
0
10
185.5
20
-108.485
40
1.1
50
242.9643083
51
302.7637558
0
ARC
8
0
10
185.5
20
-108.485
40
1.1
50
422.9643083
51
482.7637558
0
ARC
8
0
10
185.5
20
-127.485
40
1.1
50
242.9643083
51
302.7637558
0
ARC
8
0
10
185.5
20
-127.485
40
1.1
50
422.9643083
51
482.7637558
0
ARC
8
0
10
204.5
20
-128.91
40
1.1
50
242.9643083
51
297.0356917
0
ARC
8
0
10
204.5
20
-128.91
40
1.1
50
512.9643083
51
567.0356917
0
ARC
8
0
10
204.5
20
-128.91
40
1.1
50
332.9643083
51
387.0356917
0
ARC
8
0
10
204.5
20
-128.91
40
1.1
50
422.9643083
51
477.0356917
0
ARC
8
0
10
204.5
20
-147.41
40
1.1
50
180
51
245.3800212
0
ARC
8
0
10
204.5
20
-147.41
40
1.1
50
294.6199788
51
360
0
ARC
8
0
10
204.5
20
-147.41
40
1.1
50
422.9643083
51
477.0356917
0
LINE
8
0
10
213.75
20
-147.41
11
213.75
21
-167.41
0
LINE
8
0
10
93
20
-157
11
107
21
-157
0
LINE
8
0
10
107
20
-157
11
107
21
-143
0
LINE
8
0
10
107
20
-143
11
93
21
-143
0
LINE
8
0
10
93
20
-143
11
93
21
-157
0
LINE
8
0
10
93
20
-138
11
107
21
-138
0
LINE
8
0
10
107
20
-138
11
107
21
-124
0
LINE
8
0
10
107
20
-124
11
93
21
-124
0
LINE
8
0
10
93
20
-124
11
93
21
-138
0
LINE
8
0
10
93
20
-119
11
107
21
-119
0
LINE
8
0
10
107
20
-119
11
107
21
-105
0
LINE
8
0
10
107
20
-105
11
93
21
-105
0
LINE
8
0
10
93
20
-105
11
93
21
-119
0
LINE
8
0
10
93
20
-100
11
107
21
-100
0
LINE
8
0
10
107
20
-100
11
107
21
-86
0
LINE
8
0
10
107
20
-86
11
93
21
-86
0
LINE
8
0
10
93
20
-86
11
93
21
-100
0
LINE
8
0
10
112
20
-155.1
11
126
21
-155.1
0
LINE
8
0
10
126
20
-155.1
11
126
21
-141.1
0
LINE
8
0
10
126
20
-141.1
11
112
21
-141.1
0
LINE
8
0
10
112
20
-141.1
11
112
21
-155.1
0
LINE
8
0
10
112
20
-136.1
11
126
21
-136.1
0
LINE
8
0
10
126
20
-136.1
11
126
21
-122.1
0
LINE
8
0
10
126
20
-122.1
11
112
21
-122.1
0
LINE
8
0
10
112
20
-122.1
11
112
21
-136.1
0
LINE
8
0
10
112
20
-117.1
11
126
21
-117.1
0
LINE
8
0
10
126
20
-117.1
11
126
21
-103.1
0
LINE
8
0
10
126
20
-103.1
11
112
21
-103.1
0
LINE
8
0
10
112
20
-103.1
11
112
21
-117.1
0
LINE
8
0
10
112
20
-98.1
11
126
21
-98.1
0
LINE
8
0
10
126
20
-98.1
11
126
21
-84.1
0
LINE
8
0
10
126
20
-84.1
11
112
21
-84.1
0
LINE
8
0
10
112
20
-84.1
11
112
21
-98.1
0
LINE
8
0
10
131
20
-142.56
11
145
21
-142.56
0
LINE
8
0
10
145
20
-142.56
11
145
21
-128.56
0
LINE
8
0
10
145
20
-128.56
11
131
21
-128.56
0
LINE
8
0
10
131
20
-128.56
11
131
21
-142.56
0
LINE
8
0
10
131
20
-123.56
11
145
21
-123.56
0
LINE
8
0
10
145
20
-123.56
11
145
21
-109.56
0
LINE
8
0
10
145
20
-109.56
11
131
21
-109.56
0
LINE
8
0
10
131
20
-109.56
11
131
21
-123.56
0
LINE
8
0
10
131
20
-104.56
11
145
21
-104.56
0
LINE
8
0
10
145
20
-104.56
11
145
21
-90.56
0
LINE
8
0
10
145
20
-90.56
11
131
21
-90.56
0
LINE
8
0
10
131
20
-90.56
11
131
21
-104.56
0
LINE
8
0
10
131
20
-85.56
11
145
21
-85.56
0
LINE
8
0
10
145
20
-85.56
11
145
21
-71.56
0
LINE
8
0
10
145
20
-71.56
11
131
21
-71.56
0
LINE
8
0
10
131
20
-71.56
11
131
21
-85.56
0
LINE
8
0
10
150
20
-137.81
11
164
21
-137.81
0
LINE
8
0
10
164
20
-137.81
11
164
21
-123.81
0
LINE
8
0
10
164
20
-123.81
11
150
21
-123.81
0
LINE
8
0
10
150
20
-123.81
11
150
21
-137.81
0
LINE
8
0
10
150
20
-118.81
11
164
21
-118.81
0
LINE
8
0
10
164
20
-118.81
11
164
21
-104.81
0
LINE
8
0
10
164
20
-104.81
11
150
21
-104.81
0
LINE
8
0
10
150
20
-104.81
11
150
21
-118.81
0
LINE
8
0
10
150
20
-99.81
11
164
21
-99.81
0
LINE
8
0
10
164
20
-99.81
11
164
21
-85.81
0
LINE
8
0
10
164
20
-85.81
11
150
21
-85.81
0
LINE
8
0
10
150
20
-85.81
11
150
21
-99.81
0
LINE
8
0
10
150
20
-80.81
11
164
21
-80.81
0
LINE
8
0
10
164
20
-80.81
11
164
21
-66.81
0
LINE
8
0
10
164
20
-66.81
11
150
21
-66.81
0
LINE
8
0
10
150
20
-66.81
11
150
21
-80.81
0
LINE
8
0
10
169
20
-142.56
11
183
21
-142.56
0
LINE
8
0
10
183
20
-142.56
11
183
21
-128.56
0
LINE
8
0
10
183
20
-128.56
11
169
21
-128.56
0
LINE
8
0
10
169
20
-128.56
11
169
21
-142.56
0
LINE
8
0
10
169
20
-123.56
11
183
21
-123.56
0
LINE
8
0
10
183
20
-123.56
11
183
21
-109.56
0
LINE
8
0
10
183
20
-109.56
11
169
21
-109.56
0
LINE
8
0
10
169
20
-109.56
11
169
21
-123.56
0
LINE
8
0
10
169
20
-104.56
11
183
21
-104.56
0
LINE
8
0
10
183
20
-104.56
11
183
21
-90.56
0
LINE
8
0
10
183
20
-90.56
11
169
21
-90.56
0
LINE
8
0
10
169
20
-90.56
11
169
21
-104.56
0
LINE
8
0
10
169
20
-85.56
11
183
21
-85.56
0
LINE
8
0
10
183
20
-85.56
11
183
21
-71.56
0
LINE
8
0
10
183
20
-71.56
11
169
21
-71.56
0
LINE
8
0
10
169
20
-71.56
11
169
21
-85.56
0
LINE
8
0
10
188
20
-145.41
11
202
21
-145.41
0
LINE
8
0
10
202
20
-145.41
11
202
21
-131.41
0
LINE
8
0
10
202
20
-131.41
11
188
21
-131.41
0
LINE
8
0
10
188
20
-131.41
11
188
21
-145.41
0
LINE
8
0
10
188
20
-126.41
11
202
21
-126.41
0
LINE
8
0
10
202
20
-126.41
11
202
21
-112.41
0
LINE
8
0
10
202
20
-112.41
11
188
21
-112.41
0
LINE
8
0
10
188
20
-112.41
11
188
21
-126.41
0
LINE
8
0
10
188
20
-107.41
11
202
21
-107.41
0
LINE
8
0
10
202
20
-107.41
11
202
21
-93.41
0
LINE
8
0
10
202
20
-93.41
11
188
21
-93.41
0
LINE
8
0
10
188
20
-93.41
11
188
21
-107.41
0
LINE
8
0
10
188
20
-88.41
11
202
21
-88.41
0
LINE
8
0
10
202
20
-88.41
11
202
21
-74.41
0
LINE
8
0
10
202
20
-74.41
11
188
21
-74.41
0
LINE
8
0
10
188
20
-74.41
11
188
21
-88.41
0
LINE
8
0
10
149.896883
20
-167.2291915
11
163.6841915
21
-164.798117
0
LINE
8
0
10
163.6841915
20
-164.798117
11
161.253117
21
-151.0108085
0
LINE
8
0
10
161.253117
20
-151.0108085
11
147.4658085
21
-153.441883
0
LINE
8
0
10
147.4658085
20
-153.441883
11
149.896883
21
-167.2291915
0
LINE
8
0
10
169
20
-164.41
11
183
21
-164.41
0
LINE
8
0
10
183
20
-164.41
11
183
21
-150.41
0
LINE
8
0
10
183
20
-150.41
11
169
21
-150.41
0
LINE
8
0
10
169
20
-150.41
11
169
21
-164.41
0
LINE
8
0
10
192.5
20
-164.41
11
206.5
21
-164.41
0
LINE
8
0
10
206.5
20
-164.41
11
206.5
21
-150.41
0
LINE
8
0
10
206.5
20
-150.41
11
192.5
21
-150.41
0
LINE
8
0
10
192.5
20
-150.41
11
192.5
21
-164.41
0
LINE
8
0
10
207
20
-145.41
11
221
21
-145.41
0
LINE
8
0
10
221
20
-145.41
11
221
21
-131.41
0
LINE
8
0
10
221
20
-131.41
11
207
21
-131.41
0
LINE
8
0
10
207
20
-131.41
11
207
21
-145.41
0
LINE
8
0
10
207
20
-126.41
11
221
21
-126.41
0
LINE
8
0
10
221
20
-126.41
11
221
21
-112.41
0
LINE
8
0
10
221
20
-112.41
11
207
21
-112.41
0
LINE
8
0
10
207
20
-112.41
11
207
21
-126.41
0
CIRCLE
8
0
10
109.5
20
-101.55
40
1.1
0
CIRCLE
8
0
10
109.5
20
-120.55
40
1.1
0
CIRCLE
8
0
10
109.5
20
-139.55
40
1.1
0
CIRCLE
8
0
10
185.5
20
-89.485
40
1.1
0
CIRCLE
8
0
10
185.5
20
-108.485
40
1.1
0
CIRCLE
8
0
10
185.5
20
-127.485
40
1.1
0
CIRCLE
8
0
10
204.5
20
-128.91
40
1.1
0
CIRCLE
8
0
10
204.5
20
-147.41
40
1.1
0
ENDSEC
0
EOF