0
SECTION
2
HEADER
9
$INSUNITS
70
4
0
ENDSEC
0
SECTION
2
TABLES
0
TABLE
2
LTYPE
0
LTYPE
72
65
70
64
2
CONTINUOUS
3
______
73
0
40
0
0
ENDTAB
0
TABLE
2
LAYER
0
ENDTAB
0
ENDSEC
0
SECTION
2
ENTITIES
0
LINE
8
0
10
91
20
-159
11
109
21
-159
0
LINE
8
0
10
109
20
-159
11
109
21
-141
0
LINE
8
0
10
109
20
-141
11
91
21
-141
0
LINE
8
0
10
91
20
-141
11
91
21
-159
0
LINE
8
0
10
91
20
-140
11
109
21
-140
0
LINE
8
0
10
109
20
-140
11
109
21
-122
0
LINE
8
0
10
109
20
-122
11
91
21
-122
0
LINE
8
0
10
91
20
-122
11
91
21
-140
0
LINE
8
0
10
91
20
-121
11
109
21
-121
0
LINE
8
0
10
109
20
-121
11
109
21
-103
0
LINE
8
0
10
109
20
-103
11
91
21
-103
0
LINE
8
0
10
91
20
-103
11
91
21
-121
0
LINE
8
0
10
91
20
-102
11
109
21
-102
0
LINE
8
0
10
109
20
-102
11
109
21
-84
0
LINE
8
0
10
109
20
-84
11
91
21
-84
0
LINE
8
0
10
91
20
-84
11
91
21
-102
0
LINE
8
0
10
110
20
-157.1
11
128
21
-157.1
0
LINE
8
0
10
128
20
-157.1
11
128
21
-139.1
0
LINE
8
0
10
128
20
-139.1
11
110
21
-139.1
0
LINE
8
0
10
110
20
-139.1
11
110
21
-157.1
0
LINE
8
0
10
110
20
-138.1
11
128
21
-138.1
0
LINE
8
0
10
128
20
-138.1
11
128
21
-120.1
0
LINE
8
0
10
128
20
-120.1
11
110
21
-120.1
0
LINE
8
0
10
110
20
-120.1
11
110
21
-138.1
0
LINE
8
0
10
110
20
-119.1
11
128
21
-119.1
0
LINE
8
0
10
128
20
-119.1
11
128
21
-101.1
0
LINE
8
0
10
128
20
-101.1
11
110
21
-101.1
0
LINE
8
0
10
110
20
-101.1
11
110
21
-119.1
0
LINE
8
0
10
110
20
-100.1
11
128
21
-100.1
0
LINE
8
0
10
128
20
-100.1
11
128
21
-82.1
0
LINE
8
0
10
128
20
-82.1
11
110
21
-82.1
0
LINE
8
0
10
110
20
-82.1
11
110
21
-100.1
0
LINE
8
0
10
129
20
-144.56
11
147
21
-144.56
0
LINE
8
0
10
147
20
-144.56
11
147
21
-126.56
0
LINE
8
0
10
147
20
-126.56
11
129
21
-126.56
0
LINE
8
0
10
129
20
-126.56
11
129
21
-144.56
0
LINE
8
0
10
129
20
-125.56
11
147
21
-125.56
0
LINE
8
0
10
147
20
-125.56
11
147
21
-107.56
0
LINE
8
0
10
147
20
-107.56
11
129
21
-107.56
0
LINE
8
0
10
129
20
-107.56
11
129
21
-125.56
0
LINE
8
0
10
129
20
-106.56
11
147
21
-106.56
0
LINE
8
0
10
147
20
-106.56
11
147
21
-88.56
0
LINE
8
0
10
147
20
-88.56
11
129
21
-88.56
0
LINE
8
0
10
129
20
-88.56
11
129
21
-106.56
0
LINE
8
0
10
129
20
-87.56
11
147
21
-87.56
0
LINE
8
0
10
147
20
-87.56
11
147
21
-69.56
0
LINE
8
0
10
147
20
-69.56
11
129
21
-69.56
0
LINE
8
0
10
129
20
-69.56
11
129
21
-87.56
0
LINE
8
0
10
148
20
-139.81
11
166
21
-139.81
0
LINE
8
0
10
166
20
-139.81
11
166
21
-121.81
0
LINE
8
0
10
166
20
-121.81
11
148
21
-121.81
0
LINE
8
0
10
148
20
-121.81
11
148
21
-139.81
0
LINE
8
0
10
148
20
-120.81
11
166
21
-120.81
0
LINE
8
0
10
166
20
-120.81
11
166
21
-102.81
0
LINE
8
0
10
166
20
-102.81
11
148
21
-102.81
0
LINE
8
0
10
148
20
-102.81
11
148
21
-120.81
0
LINE
8
0
10
148
20
-101.81
11
166
21
-101.81
0
LINE
8
0
10
166
20
-101.81
11
166
21
-83.81
0
LINE
8
0
10
166
20
-83.81
11
148
21
-83.81
0
LINE
8
0
10
148
20
-83.81
11
148
21
-101.81
0
LINE
8
0
10
148
20
-82.81
11
166
21
-82.81
0
LINE
8
0
10
166
20
-82.81
11
166
21
-64.81
0
LINE
8
0
10
166
20
-64.81
11
148
21
-64.81
0
LINE
8
0
10
148
20
-64.81
11
148
21
-82.81
0
LINE
8
0
10
167
20
-144.56
11
185
21
-144.56
0
LINE
8
0
10
185
20
-144.56
11
185
21
-126.56
0
LINE
8
0
10
185
20
-126.56
11
167
21
-126.56
0
LINE
8
0
10
167
20
-126.56
11
167
21
-144.56
0
LINE
8
0
10
167
20
-125.56
11
185
21
-125.56
0
LINE
8
0
10
185
20
-125.56
11
185
21
-107.56
0
LINE
8
0
10
185
20
-107.56
11
167
21
-107.56
0
LINE
8
0
10
167
20
-107.56
11
167
21
-125.56
0
LINE
8
0
10
167
20
-106.56
11
185
21
-106.56
0
LINE
8
0
10
185
20
-106.56
11
185
21
-88.56
0
LINE
8
0
10
185
20
-88.56
11
167
21
-88.56
0
LINE
8
0
10
167
20
-88.56
11
167
21
-106.56
0
LINE
8
0
10
167
20
-87.56
11
185
21
-87.56
0
LINE
8
0
10
185
20
-87.56
11
185
21
-69.56
0
LINE
8
0
10
185
20
-69.56
11
167
21
-69.56
0
LINE
8
0
10
167
20
-69.56
11
167
21
-87.56
0
LINE
8
0
10
186
20
-147.41
11
204
21
-147.41
0
LINE
8
0
10
204
20
-147.41
11
204
21
-129.41
0
LINE
8
0
10
204
20
-129.41
11
186
21
-129.41
0
LINE
8
0
10
186
20
-129.41
11
186
21
-147.41
0
LINE
8
0
10
186
20
-128.41
11
204
21
-128.41
0
LINE
8
0
10
204
20
-128.41
11
204
21
-110.41
0
LINE
8
0
10
204
20
-110.41
11
186
21
-110.41
0
LINE
8
0
10
186
20
-110.41
11
186
21
-128.41
0
LINE
8
0
10
186
20
-109.41
11
204
21
-109.41
0
LINE
8
0
10
204
20
-109.41
11
204
21
-91.41
0
LINE
8
0
10
204
20
-91.41
11
186
21
-91.41
0
LINE
8
0
10
186
20
-91.41
11
186
21
-109.41
0
LINE
8
0
10
186
20
-90.41
11
204
21
-90.41
0
LINE
8
0
10
204
20
-90.41
11
204
21
-72.41
0
LINE
8
0
10
204
20
-72.41
11
186
21
-72.41
0
LINE
8
0
10
186
20
-72.41
11
186
21
-90.41
0
LINE
8
0
10
148.2745638
20
-169.5461034
11
166.0011034
21
-166.4204362
0
LINE
8
0
10
166.0011034
20
-166.4204362
11
162.8754362
21
-148.6938966
0
LINE
8
0
10
162.8754362
20
-148.6938966
11
145.1488966
21
-151.8195638
0
LINE
8
0
10
145.1488966
20
-151.8195638
11
148.2745638
21
-169.5461034
0
LINE
8
0
10
167
20
-166.41
11
185
21
-166.41
0
LINE
8
0
10
185
20
-166.41
11
185
21
-148.41
0
LINE
8
0
10
185
20
-148.41
11
167
21
-148.41
0
LINE
8
0
10
167
20
-148.41
11
167
21
-166.41
0
LINE
8
0
10
186
20
-166.41
11
213
21
-166.41
0
LINE
8
0
10
186
20
-148.41
11
213
21
-148.41
0
LINE
8
0
10
205
20
-147.41
11
223
21
-147.41
0
LINE
8
0
10
223
20
-147.41
11
223
21
-129.41
0
LINE
8
0
10
223
20
-129.41
11
205
21
-129.41
0
LINE
8
0
10
205
20
-129.41
11
205
21
-147.41
0
LINE
8
0
10
205
20
-128.41
11
223
21
-128.41
0
LINE
8
0
10
223
20
-128.41
11
223
21
-110.41
0
LINE
8
0
10
223
20
-110.41
11
205
21
-110.41
0
LINE
8
0
10
205
20
-110.41
11
205
21
-128.41
0
LINE
8
0
10
376
20
-159
11
394
21
-159
0
LINE
8
0
10
394
20
-159
11
394
21
-141
0
LINE
8
0
10
394
20
-141
11
376
21
-141
0
LINE
8
0
10
376
20
-141
11
376
21
-159
0
LINE
8
0
10
376
20
-140
11
394
21
-140
0
LINE
8
0
10
394
20
-140
11
394
21
-122
0
LINE
8
0
10
394
20
-122
11
376
21
-122
0
LINE
8
0
10
376
20
-122
11
376
21
-140
0
LINE
8
0
10
376
20
-121
11
394
21
-121
0
LINE
8
0
10
394
20
-121
11
394
21
-103
0
LINE
8
0
10
394
20
-103
11
376
21
-103
0
LINE
8
0
10
376
20
-103
11
376
21
-121
0
LINE
8
0
10
376
20
-102
11
394
21
-102
0
LINE
8
0
10
394
20
-102
11
394
21
-84
0
LINE
8
0
10
394
20
-84
11
376
21
-84
0
LINE
8
0
10
376
20
-84
11
376
21
-102
0
LINE
8
0
10
357
20
-157.1
11
375
21
-157.1
0
LINE
8
0
10
375
20
-157.1
11
375
21
-139.1
0
LINE
8
0
10
375
20
-139.1
11
357
21
-139.1
0
LINE
8
0
10
357
20
-139.1
11
357
21
-157.1
0
LINE
8
0
10
357
20
-138.1
11
375
21
-138.1
0
LINE
8
0
10
375
20
-138.1
11
375
21
-120.1
0
LINE
8
0
10
375
20
-120.1
11
357
21
-120.1
0
LINE
8
0
10
357
20
-120.1
11
357
21
-138.1
0
LINE
8
0
10
357
20
-119.1
11
375
21
-119.1
0
LINE
8
0
10
375
20
-119.1
11
375
21
-101.1
0
LINE
8
0
10
375
20
-101.1
11
357
21
-101.1
0
LINE
8
0
10
357
20
-101.1
11
357
21
-119.1
0
LINE
8
0
10
357
20
-100.1
11
375
21
-100.1
0
LINE
8
0
10
375
20
-100.1
11
375
21
-82.1
0
LINE
8
0
10
375
20
-82.1
11
357
21
-82.1
0
LINE
8
0
10
357
20
-82.1
11
357
21
-100.1
0
LINE
8
0
10
338
20
-144.56
11
356
21
-144.56
0
LINE
8
0
10
356
20
-144.56
11
356
21
-126.56
0
LINE
8
0
10
356
20
-126.56
11
338
21
-126.56
0
LINE
8
0
10
338
20
-126.56
11
338
21
-144.56
0
LINE
8
0
10
338
20
-125.56
11
356
21
-125.56
0
LINE
8
0
10
356
20
-125.56
11
356
21
-107.56
0
LINE
8
0
10
356
20
-107.56
11
338
21
-107.56
0
LINE
8
0
10
338
20
-107.56
11
338
21
-125.56
0
LINE
8
0
10
338
20
-106.56
11
356
21
-106.56
0
LINE
8
0
10
356
20
-106.56
11
356
21
-88.56
0
LINE
8
0
10
356
20
-88.56
11
338
21
-88.56
0
LINE
8
0
10
338
20
-88.56
11
338
21
-106.56
0
LINE
8
0
10
338
20
-87.56
11
356
21
-87.56
0
LINE
8
0
10
356
20
-87.56
11
356
21
-69.56
0
LINE
8
0
10
356
20
-69.56
11
338
21
-69.56
0
LINE
8
0
10
338
20
-69.56
11
338
21
-87.56
0
LINE
8
0
10
319
20
-139.81
11
337
21
-139.81
0
LINE
8
0
10
337
20
-139.81
11
337
21
-121.81
0
LINE
8
0
10
337
20
-121.81
11
319
21
-121.81
0
LINE
8
0
10
319
20
-121.81
11
319
21
-139.81
0
LINE
8
0
10
319
20
-120.81
11
337
21
-120.81
0
LINE
8
0
10
337
20
-120.81
11
337
21
-102.81
0
LINE
8
0
10
337
20
-102.81
11
319
21
-102.81
0
LINE
8
0
10
319
20
-102.81
11
319
21
-120.81
0
LINE
8
0
10
319
20
-101.81
11
337
21
-101.81
0
LINE
8
0
10
337
20
-101.81
11
337
21
-83.81
0
LINE
8
0
10
337
20
-83.81
11
319
21
-83.81
0
LINE
8
0
10
319
20
-83.81
11
319
21
-101.81
0
LINE
8
0
10
319
20
-82.81
11
337
21
-82.81
0
LINE
8
0
10
337
20
-82.81
11
337
21
-64.81
0
LINE
8
0
10
337
20
-64.81
11
319
21
-64.81
0
LINE
8
0
10
319
20
-64.81
11
319
21
-82.81
0
LINE
8
0
10
300
20
-144.56
11
318
21
-144.56
0
LINE
8
0
10
318
20
-144.56
11
318
21
-126.56
0
LINE
8
0
10
318
20
-126.56
11
300
21
-126.56
0
LINE
8
0
10
300
20
-126.56
11
300
21
-144.56
0
LINE
8
0
10
300
20
-125.56
11
318
21
-125.56
0
LINE
8
0
10
318
20
-125.56
11
318
21
-107.56
0
LINE
8
0
10
318
20
-107.56
11
300
21
-107.56
0
LINE
8
0
10
300
20
-107.56
11
300
21
-125.56
0
LINE
8
0
10
300
20
-106.56
11
318
21
-106.56
0
LINE
8
0
10
318
20
-106.56
11
318
21
-88.56
0
LINE
8
0
10
318
20
-88.56
11
300
21
-88.56
0
LINE
8
0
10
300
20
-88.56
11
300
21
-106.56
0
LINE
8
0
10
300
20
-87.56
11
318
21
-87.56
0
LINE
8
0
10
318
20
-87.56
11
318
21
-69.56
0
LINE
8
0
10
318
20
-69.56
11
300
21
-69.56
0
LINE
8
0
10
300
20
-69.56
11
300
21
-87.56
0
LINE
8
0
10
281
20
-147.41
11
299
21
-147.41
0
LINE
8
0
10
299
20
-147.41
11
299
21
-129.41
0
LINE
8
0
10
299
20
-129.41
11
281
21
-129.41
0
LINE
8
0
10
281
20
-129.41
11
281
21
-147.41
0
LINE
8
0
10
281
20
-128.41
11
299
21
-128.41
0
LINE
8
0
10
299
20
-128.41
11
299
21
-110.41
0
LINE
8
0
10
299
20
-110.41
11
281
21
-110.41
0
LINE
8
0
10
281
20
-110.41
11
281
21
-128.41
0
LINE
8
0
10
281
20
-109.41
11
299
21
-109.41
0
LINE
8
0
10
299
20
-109.41
11
299
21
-91.41
0
LINE
8
0
10
299
20
-91.41
11
281
21
-91.41
0
LINE
8
0
10
281
20
-91.41
11
281
21
-109.41
0
LINE
8
0
10
281
20
-90.41
11
299
21
-90.41
0
LINE
8
0
10
299
20
-90.41
11
299
21
-72.41
0
LINE
8
0
10
299
20
-72.41
11
281
21
-72.41
0
LINE
8
0
10
281
20
-72.41
11
281
21
-90.41
0
LINE
8
0
10
318.9988966
20
-166.4204362
11
336.7254362
21
-169.5461034
0
LINE
8
0
10
336.7254362
20
-169.5461034
11
339.8511034
21
-151.8195638
0
LINE
8
0
10
339.8511034
20
-151.8195638
11
322.1245638
21
-148.6938966
0
LINE
8
0
10
322.1245638
20
-148.6938966
11
318.9988966
21
-166.4204362
0
LINE
8
0
10
300
20
-166.41
11
318
21
-166.41
0
LINE
8
0
10
318
20
-166.41
11
318
21
-148.41
0
LINE
8
0
10
318
20
-148.41
11
300
21
-148.41
0
LINE
8
0
10
300
20
-148.41
11
300
21
-166.41
0
LINE
8
0
10
276.5
20
-166.41
11
294.5
21
-166.41
0
LINE
8
0
10
294.5
20
-166.41
11
294.5
21
-148.41
0
LINE
8
0
10
294.5
20
-148.41
11
276.5
21
-148.41
0
LINE
8
0
10
276.5
20
-148.41
11
276.5
21
-166.41
0
LINE
8
0
10
262
20
-147.41
11
280
21
-147.41
0
LINE
8
0
10
280
20
-147.41
11
280
21
-129.41
0
LINE
8
0
10
280
20
-129.41
11
262
21
-129.41
0
LINE
8
0
10
262
20
-129.41
11
262
21
-147.41
0
LINE
8
0
10
262
20
-128.41
11
280
21
-128.41
0
LINE
8
0
10
280
20
-128.41
11
280
21
-110.41
0
LINE
8
0
10
280
20
-110.41
11
262
21
-110.41
0
LINE
8
0
10
262
20
-110.41
11
262
21
-128.41
0
LINE
8
0
10
213
20
-166.41
11
213
21
-148.41
0
LINE
8
0
10
186
20
-148.41
11
186
21
-166.41
0
ENDSEC
0
EOF