0
SECTION
2
HEADER
9
$INSUNITS
70
4
0
ENDSEC
0
SECTION
2
TABLES
0
TABLE
2
LTYPE
0
LTYPE
72
65
70
64
2
CONTINUOUS
3
______
73
0
40
0
0
ENDTAB
0
TABLE
2
LAYER
0
ENDTAB
0
ENDSEC
0
SECTION
2
ENTITIES
0
LINE
8
0
10
93
20
-157
11
107
21
-157
0
LINE
8
0
10
107
20
-157
11
107
21
-143
0
LINE
8
0
10
107
20
-143
11
93
21
-143
0
LINE
8
0
10
93
20
-143
11
93
21
-157
0
LINE
8
0
10
93
20
-138
11
107
21
-138
0
LINE
8
0
10
107
20
-138
11
107
21
-124
0
LINE
8
0
10
107
20
-124
11
93
21
-124
0
LINE
8
0
10
93
20
-124
11
93
21
-138
0
LINE
8
0
10
93
20
-119
11
107
21
-119
0
LINE
8
0
10
107
20
-119
11
107
21
-105
0
LINE
8
0
10
107
20
-105
11
93
21
-105
0
LINE
8
0
10
93
20
-105
11
93
21
-119
0
LINE
8
0
10
93
20
-100
11
107
21
-100
0
LINE
8
0
10
107
20
-100
11
107
21
-86
0
LINE
8
0
10
107
20
-86
11
93
21
-86
0
LINE
8
0
10
93
20
-86
11
93
21
-100
0
LINE
8
0
10
112
20
-155.1
11
126
21
-155.1
0
LINE
8
0
10
126
20
-155.1
11
126
21
-141.1
0
LINE
8
0
10
126
20
-141.1
11
112
21
-141.1
0
LINE
8
0
10
112
20
-141.1
11
112
21
-155.1
0
LINE
8
0
10
112
20
-136.1
11
126
21
-136.1
0
LINE
8
0
10
126
20
-136.1
11
126
21
-122.1
0
LINE
8
0
10
126
20
-122.1
11
112
21
-122.1
0
LINE
8
0
10
112
20
-122.1
11
112
21
-136.1
0
LINE
8
0
10
112
20
-117.1
11
126
21
-117.1
0
LINE
8
0
10
126
20
-117.1
11
126
21
-103.1
0
LINE
8
0
10
126
20
-103.1
11
112
21
-103.1
0
LINE
8
0
10
112
20
-103.1
11
112
21
-117.1
0
LINE
8
0
10
112
20
-98.1
11
126
21
-98.1
0
LINE
8
0
10
126
20
-98.1
11
126
21
-84.1
0
LINE
8
0
10
126
20
-84.1
11
112
21
-84.1
0
LINE
8
0
10
112
20
-84.1
11
112
21
-98.1
0
LINE
8
0
10
131
20
-142.56
11
145
21
-142.56
0
LINE
8
0
10
145
20
-142.56
11
145
21
-128.56
0
LINE
8
0
10
145
20
-128.56
11
131
21
-128.56
0
LINE
8
0
10
131
20
-128.56
11
131
21
-142.56
0
LINE
8
0
10
131
20
-123.56
11
145
21
-123.56
0
LINE
8
0
10
145
20
-123.56
11
145
21
-109.56
0
LINE
8
0
10
145
20
-109.56
11
131
21
-109.56
0
LINE
8
0
10
131
20
-109.56
11
131
21
-123.56
0
LINE
8
0
10
131
20
-104.56
11
145
21
-104.56
0
LINE
8
0
10
145
20
-104.56
11
145
21
-90.56
0
LINE
8
0
10
145
20
-90.56
11
131
21
-90.56
0
LINE
8
0
10
131
20
-90.56
11
131
21
-104.56
0
LINE
8
0
10
131
20
-85.56
11
145
21
-85.56
0
LINE
8
0
10
145
20
-85.56
11
145
21
-71.56
0
LINE
8
0
10
145
20
-71.56
11
131
21
-71.56
0
LINE
8
0
10
131
20
-71.56
11
131
21
-85.56
0
LINE
8
0
10
150
20
-137.81
11
164
21
-137.81
0
LINE
8
0
10
164
20
-137.81
11
164
21
-123.81
0
LINE
8
0
10
164
20
-123.81
11
150
21
-123.81
0
LINE
8
0
10
150
20
-123.81
11
150
21
-137.81
0
LINE
8
0
10
150
20
-118.81
11
164
21
-118.81
0
LINE
8
0
10
164
20
-118.81
11
164
21
-104.81
0
LINE
8
0
10
164
20
-104.81
11
150
21
-104.81
0
LINE
8
0
10
150
20
-104.81
11
150
21
-118.81
0
LINE
8
0
10
150
20
-99.81
11
164
21
-99.81
0
LINE
8
0
10
164
20
-99.81
11
164
21
-85.81
0
LINE
8
0
10
164
20
-85.81
11
150
21
-85.81
0
LINE
8
0
10
150
20
-85.81
11
150
21
-99.81
0
LINE
8
0
10
150
20
-80.81
11
164
21
-80.81
0
LINE
8
0
10
164
20
-80.81
11
164
21
-66.81
0
LINE
8
0
10
164
20
-66.81
11
150
21
-66.81
0
LINE
8
0
10
150
20
-66.81
11
150
21
-80.81
0
LINE
8
0
10
169
20
-142.56
11
183
21
-142.56
0
LINE
8
0
10
183
20
-142.56
11
183
21
-128.56
0
LINE
8
0
10
183
20
-128.56
11
169
21
-128.56
0
LINE
8
0
10
169
20
-128.56
11
169
21
-142.56
0
LINE
8
0
10
169
20
-123.56
11
183
21
-123.56
0
LINE
8
0
10
183
20
-123.56
11
183
21
-109.56
0
LINE
8
0
10
183
20
-109.56
11
169
21
-109.56
0
LINE
8
0
10
169
20
-109.56
11
169
21
-123.56
0
LINE
8
0
10
169
20
-104.56
11
183
21
-104.56
0
LINE
8
0
10
183
20
-104.56
11
183
21
-90.56
0
LINE
8
0
10
183
20
-90.56
11
169
21
-90.56
0
LINE
8
0
10
169
20
-90.56
11
169
21
-104.56
0
LINE
8
0
10
169
20
-85.56
11
183
21
-85.56
0
LINE
8
0
10
183
20
-85.56
11
183
21
-71.56
0
LINE
8
0
10
183
20
-71.56
11
169
21
-71.56
0
LINE
8
0
10
169
20
-71.56
11
169
21
-85.56
0
LINE
8
0
10
188
20
-145.41
11
202
21
-145.41
0
LINE
8
0
10
202
20
-145.41
11
202
21
-131.41
0
LINE
8
0
10
202
20
-131.41
11
188
21
-131.41
0
LINE
8
0
10
188
20
-131.41
11
188
21
-145.41
0
LINE
8
0
10
188
20
-126.41
11
202
21
-126.41
0
LINE
8
0
10
202
20
-126.41
11
202
21
-112.41
0
LINE
8
0
10
202
20
-112.41
11
188
21
-112.41
0
LINE
8
0
10
188
20
-112.41
11
188
21
-126.41
0
LINE
8
0
10
188
20
-107.41
11
202
21
-107.41
0
LINE
8
0
10
202
20
-107.41
11
202
21
-93.41
0
LINE
8
0
10
202
20
-93.41
11
188
21
-93.41
0
LINE
8
0
10
188
20
-93.41
11
188
21
-107.41
0
LINE
8
0
10
188
20
-88.41
11
202
21
-88.41
0
LINE
8
0
10
202
20
-88.41
11
202
21
-74.41
0
LINE
8
0
10
202
20
-74.41
11
188
21
-74.41
0
LINE
8
0
10
188
20
-74.41
11
188
21
-88.41
0
LINE
8
0
10
149.896883
20
-167.2291915
11
163.6841915
21
-164.798117
0
LINE
8
0
10
163.6841915
20
-164.798117
11
161.253117
21
-151.0108085
0
LINE
8
0
10
161.253117
20
-151.0108085
11
147.4658085
21
-153.441883
0
LINE
8
0
10
147.4658085
20
-153.441883
11
149.896883
21
-167.2291915
0
LINE
8
0
10
169
20
-164.41
11
183
21
-164.41
0
LINE
8
0
10
183
20
-164.41
11
183
21
-150.41
0
LINE
8
0
10
183
20
-150.41
11
169
21
-150.41
0
LINE
8
0
10
169
20
-150.41
11
169
21
-164.41
0
LINE
8
0
10
192.5
20
-164.41
11
206.5
21
-164.41
0
LINE
8
0
10
206.5
20
-164.41
11
206.5
21
-150.41
0
LINE
8
0
10
206.5
20
-150.41
11
192.5
21
-150.41
0
LINE
8
0
10
192.5
20
-150.41
11
192.5
21
-164.41
0
LINE
8
0
10
207
20
-145.41
11
221
21
-145.41
0
LINE
8
0
10
221
20
-145.41
11
221
21
-131.41
0
LINE
8
0
10
221
20
-131.41
11
207
21
-131.41
0
LINE
8
0
10
207
20
-131.41
11
207
21
-145.41
0
LINE
8
0
10
207
20
-126.41
11
221
21
-126.41
0
LINE
8
0
10
221
20
-126.41
11
221
21
-112.41
0
LINE
8
0
10
221
20
-112.41
11
207
21
-112.41
0
LINE
8
0
10
207
20
-112.41
11
207
21
-126.41
0
LINE
8
0
10
378
20
-157
11
392
21
-157
0
LINE
8
0
10
392
20
-157
11
392
21
-143
0
LINE
8
0
10
392
20
-143
11
378
21
-143
0
LINE
8
0
10
378
20
-143
11
378
21
-157
0
LINE
8
0
10
378
20
-138
11
392
21
-138
0
LINE
8
0
10
392
20
-138
11
392
21
-124
0
LINE
8
0
10
392
20
-124
11
378
21
-124
0
LINE
8
0
10
378
20
-124
11
378
21
-138
0
LINE
8
0
10
378
20
-119
11
392
21
-119
0
LINE
8
0
10
392
20
-119
11
392
21
-105
0
LINE
8
0
10
392
20
-105
11
378
21
-105
0
LINE
8
0
10
378
20
-105
11
378
21
-119
0
LINE
8
0
10
378
20
-100
11
392
21
-100
0
LINE
8
0
10
392
20
-100
11
392
21
-86
0
LINE
8
0
10
392
20
-86
11
378
21
-86
0
LINE
8
0
10
378
20
-86
11
378
21
-100
0
LINE
8
0
10
359
20
-155.1
11
373
21
-155.1
0
LINE
8
0
10
373
20
-155.1
11
373
21
-141.1
0
LINE
8
0
10
373
20
-141.1
11
359
21
-141.1
0
LINE
8
0
10
359
20
-141.1
11
359
21
-155.1
0
LINE
8
0
10
359
20
-136.1
11
373
21
-136.1
0
LINE
8
0
10
373
20
-136.1
11
373
21
-122.1
0
LINE
8
0
10
373
20
-122.1
11
359
21
-122.1
0
LINE
8
0
10
359
20
-122.1
11
359
21
-136.1
0
LINE
8
0
10
359
20
-117.1
11
373
21
-117.1
0
LINE
8
0
10
373
20
-117.1
11
373
21
-103.1
0
LINE
8
0
10
373
20
-103.1
11
359
21
-103.1
0
LINE
8
0
10
359
20
-103.1
11
359
21
-117.1
0
LINE
8
0
10
359
20
-98.1
11
373
21
-98.1
0
LINE
8
0
10
373
20
-98.1
11
373
21
-84.1
0
LINE
8
0
10
373
20
-84.1
11
359
21
-84.1
0
LINE
8
0
10
359
20
-84.1
11
359
21
-98.1
0
LINE
8
0
10
340
20
-142.56
11
354
21
-142.56
0
LINE
8
0
10
354
20
-142.56
11
354
21
-128.56
0
LINE
8
0
10
354
20
-128.56
11
340
21
-128.56
0
LINE
8
0
10
340
20
-128.56
11
340
21
-142.56
0
LINE
8
0
10
340
20
-123.56
11
354
21
-123.56
0
LINE
8
0
10
354
20
-123.56
11
354
21
-109.56
0
LINE
8
0
10
354
20
-109.56
11
340
21
-109.56
0
LINE
8
0
10
340
20
-109.56
11
340
21
-123.56
0
LINE
8
0
10
340
20
-104.56
11
354
21
-104.56
0
LINE
8
0
10
354
20
-104.56
11
354
21
-90.56
0
LINE
8
0
10
354
20
-90.56
11
340
21
-90.56
0
LINE
8
0
10
340
20
-90.56
11
340
21
-104.56
0
LINE
8
0
10
340
20
-85.56
11
354
21
-85.56
0
LINE
8
0
10
354
20
-85.56
11
354
21
-71.56
0
LINE
8
0
10
354
20
-71.56
11
340
21
-71.56
0
LINE
8
0
10
340
20
-71.56
11
340
21
-85.56
0
LINE
8
0
10
321
20
-137.81
11
335
21
-137.81
0
LINE
8
0
10
335
20
-137.81
11
335
21
-123.81
0
LINE
8
0
10
335
20
-123.81
11
321
21
-123.81
0
LINE
8
0
10
321
20
-123.81
11
321
21
-137.81
0
LINE
8
0
10
321
20
-118.81
11
335
21
-118.81
0
LINE
8
0
10
335
20
-118.81
11
335
21
-104.81
0
LINE
8
0
10
335
20
-104.81
11
321
21
-104.81
0
LINE
8
0
10
321
20
-104.81
11
321
21
-118.81
0
LINE
8
0
10
321
20
-99.81
11
335
21
-99.81
0
LINE
8
0
10
335
20
-99.81
11
335
21
-85.81
0
LINE
8
0
10
335
20
-85.81
11
321
21
-85.81
0
LINE
8
0
10
321
20
-85.81
11
321
21
-99.81
0
LINE
8
0
10
321
20
-80.81
11
335
21
-80.81
0
LINE
8
0
10
335
20
-80.81
11
335
21
-66.81
0
LINE
8
0
10
335
20
-66.81
11
321
21
-66.81
0
LINE
8
0
10
321
20
-66.81
11
321
21
-80.81
0
LINE
8
0
10
302
20
-142.56
11
316
21
-142.56
0
LINE
8
0
10
316
20
-142.56
11
316
21
-128.56
0
LINE
8
0
10
316
20
-128.56
11
302
21
-128.56
0
LINE
8
0
10
302
20
-128.56
11
302
21
-142.56
0
LINE
8
0
10
302
20
-123.56
11
316
21
-123.56
0
LINE
8
0
10
316
20
-123.56
11
316
21
-109.56
0
LINE
8
0
10
316
20
-109.56
11
302
21
-109.56
0
LINE
8
0
10
302
20
-109.56
11
302
21
-123.56
0
LINE
8
0
10
302
20
-104.56
11
316
21
-104.56
0
LINE
8
0
10
316
20
-104.56
11
316
21
-90.56
0
LINE
8
0
10
316
20
-90.56
11
302
21
-90.56
0
LINE
8
0
10
302
20
-90.56
11
302
21
-104.56
0
LINE
8
0
10
302
20
-85.56
11
316
21
-85.56
0
LINE
8
0
10
316
20
-85.56
11
316
21
-71.56
0
LINE
8
0
10
316
20
-71.56
11
302
21
-71.56
0
LINE
8
0
10
302
20
-71.56
11
302
21
-85.56
0
LINE
8
0
10
283
20
-145.41
11
297
21
-145.41
0
LINE
8
0
10
297
20
-145.41
11
297
21
-131.41
0
LINE
8
0
10
297
20
-131.41
11
283
21
-131.41
0
LINE
8
0
10
283
20
-131.41
11
283
21
-145.41
0
LINE
8
0
10
283
20
-126.41
11
297
21
-126.41
0
LINE
8
0
10
297
20
-126.41
11
297
21
-112.41
0
LINE
8
0
10
297
20
-112.41
11
283
21
-112.41
0
LINE
8
0
10
283
20
-112.41
11
283
21
-126.41
0
LINE
8
0
10
283
20
-107.41
11
297
21
-107.41
0
LINE
8
0
10
297
20
-107.41
11
297
21
-93.41
0
LINE
8
0
10
297
20
-93.41
11
283
21
-93.41
0
LINE
8
0
10
283
20
-93.41
11
283
21
-107.41
0
LINE
8
0
10
283
20
-88.41
11
297
21
-88.41
0
LINE
8
0
10
297
20
-88.41
11
297
21
-74.41
0
LINE
8
0
10
297
20
-74.41
11
283
21
-74.41
0
LINE
8
0
10
283
20
-74.41
11
283
21
-88.41
0
LINE
8
0
10
321.3158085
20
-164.798117
11
335.103117
21
-167.2291915
0
LINE
8
0
10
335.103117
20
-167.2291915
11
337.5341915
21
-153.441883
0
LINE
8
0
10
337.5341915
20
-153.441883
11
323.746883
21
-151.0108085
0
LINE
8
0
10
323.746883
20
-151.0108085
11
321.3158085
21
-164.798117
0
LINE
8
0
10
302
20
-164.41
11
316
21
-164.41
0
LINE
8
0
10
316
20
-164.41
11
316
21
-150.41
0
LINE
8
0
10
316
20
-150.41
11
302
21
-150.41
0
LINE
8
0
10
302
20
-150.41
11
302
21
-164.41
0
LINE
8
0
10
278.5
20
-164.41
11
292.5
21
-164.41
0
LINE
8
0
10
292.5
20
-164.41
11
292.5
21
-150.41
0
LINE
8
0
10
292.5
20
-150.41
11
278.5
21
-150.41
0
LINE
8
0
10
278.5
20
-150.41
11
278.5
21
-164.41
0
LINE
8
0
10
264
20
-145.41
11
278
21
-145.41
0
LINE
8
0
10
278
20
-145.41
11
278
21
-131.41
0
LINE
8
0
10
278
20
-131.41
11
264
21
-131.41
0
LINE
8
0
10
264
20
-131.41
11
264
21
-145.41
0
LINE
8
0
10
264
20
-126.41
11
278
21
-126.41
0
LINE
8
0
10
278
20
-126.41
11
278
21
-112.41
0
LINE
8
0
10
278
20
-112.41
11
264
21
-112.41
0
LINE
8
0
10
264
20
-112.41
11
264
21
-126.41
0
ENDSEC
0
EOF