0
SECTION
2
HEADER
9
$INSUNITS
70
4
0
ENDSEC
0
SECTION
2
TABLES
0
TABLE
2
LTYPE
0
LTYPE
72
65
70
64
2
CONTINUOUS
3
______
73
0
40
0
0
ENDTAB
0
TABLE
2
LAYER
0
ENDTAB
0
ENDSEC
0
SECTION
2
ENTITIES
0
LINE
8
0
10
90
20
-160
11
90
21
-83
0
LINE
8
0
10
90
20
-83
11
109
21
-83
0
LINE
8
0
10
109
20
-83
11
109
21
-81.1
0
LINE
8
0
10
109
20
-81.1
11
128
21
-81.1
0
LINE
8
0
10
128
20
-81.1
11
128
21
-68.56
0
LINE
8
0
10
128
20
-68.56
11
147
21
-68.56
0
LINE
8
0
10
147
20
-68.56
11
147
21
-63.81
0
LINE
8
0
10
147
20
-63.81
11
167
21
-63.81
0
LINE
8
0
10
167
20
-63.81
11
167
21
-68.56
0
LINE
8
0
10
167
20
-68.56
11
186
21
-68.56
0
LINE
8
0
10
186
20
-68.56
11
186
21
-71.41
0
LINE
8
0
10
186
20
-71.41
11
204
21
-71.41
0
LINE
8
0
10
204
20
-127.9302041
11
204
21
-71.41
0
LINE
8
0
10
205.4797959
20
-129.41
11
224
21
-129.41
0
LINE
8
0
10
224
20
-129.41
11
224
21
-147.41
0
LINE
8
0
10
224
20
-147.41
11
213.75
21
-147.41
0
LINE
8
0
10
213.75
20
-147.41
11
213.75
21
-167.41
0
LINE
8
0
10
166.5
20
-167.41
11
213.75
21
-167.41
0
LINE
8
0
10
166.5
20
-167.41
11
147.2742905
21
-170.5419278
0
LINE
8
0
10
147.2742905
20
-170.5419278
11
129
21
-158.1
0
LINE
8
0
10
129
20
-158.1
11
110
21
-158.1
0
LINE
8
0
10
110
20
-158.1
11
110
21
-160
0
LINE
8
0
10
110
20
-160
11
90
21
-160
0
LINE
8
0
10
93
20
-157
11
107
21
-157
0
LINE
8
0
10
107
20
-157
11
107
21
-143
0
LINE
8
0
10
107
20
-143
11
93
21
-143
0
LINE
8
0
10
93
20
-143
11
93
21
-157
0
LINE
8
0
10
93
20
-138
11
107
21
-138
0
LINE
8
0
10
107
20
-138
11
107
21
-124
0
LINE
8
0
10
107
20
-124
11
93
21
-124
0
LINE
8
0
10
93
20
-124
11
93
21
-138
0
LINE
8
0
10
93
20
-119
11
107
21
-119
0
LINE
8
0
10
107
20
-119
11
107
21
-105
0
LINE
8
0
10
107
20
-105
11
93
21
-105
0
LINE
8
0
10
93
20
-105
11
93
21
-119
0
LINE
8
0
10
93
20
-100
11
107
21
-100
0
LINE
8
0
10
107
20
-100
11
107
21
-86
0
LINE
8
0
10
107
20
-86
11
93
21
-86
0
LINE
8
0
10
93
20
-86
11
93
21
-100
0
LINE
8
0
10
112
20
-155.1
11
126
21
-155.1
0
LINE
8
0
10
126
20
-155.1
11
126
21
-141.1
0
LINE
8
0
10
126
20
-141.1
11
112
21
-141.1
0
LINE
8
0
10
112
20
-141.1
11
112
21
-155.1
0
LINE
8
0
10
112
20
-136.1
11
126
21
-136.1
0
LINE
8
0
10
126
20
-136.1
11
126
21
-122.1
0
LINE
8
0
10
126
20
-122.1
11
112
21
-122.1
0
LINE
8
0
10
112
20
-122.1
11
112
21
-136.1
0
LINE
8
0
10
112
20
-117.1
11
126
21
-117.1
0
LINE
8
0
10
126
20
-117.1
11
126
21
-103.1
0
LINE
8
0
10
126
20
-103.1
11
112
21
-103.1
0
LINE
8
0
10
112
20
-103.1
11
112
21
-117.1
0
LINE
8
0
10
112
20
-98.1
11
126
21
-98.1
0
LINE
8
0
10
126
20
-98.1
11
126
21
-84.1
0
LINE
8
0
10
126
20
-84.1
11
112
21
-84.1
0
LINE
8
0
10
112
20
-84.1
11
112
21
-98.1
0
LINE
8
0
10
131
20
-142.56
11
145
21
-142.56
0
LINE
8
0
10
145
20
-142.56
11
145
21
-128.56
0
LINE
8
0
10
145
20
-128.56
11
131
21
-128.56
0
LINE
8
0
10
131
20
-128.56
11
131
21
-142.56
0
LINE
8
0
10
131
20
-123.56
11
145
21
-123.56
0
LINE
8
0
10
145
20
-123.56
11
145
21
-109.56
0
LINE
8
0
10
145
20
-109.56
11
131
21
-109.56
0
LINE
8
0
10
131
20
-109.56
11
131
21
-123.56
0
LINE
8
0
10
131
20
-104.56
11
145
21
-104.56
0
LINE
8
0
10
145
20
-104.56
11
145
21
-90.56
0
LINE
8
0
10
145
20
-90.56
11
131
21
-90.56
0
LINE
8
0
10
131
20
-90.56
11
131
21
-104.56
0
LINE
8
0
10
131
20
-85.56
11
145
21
-85.56
0
LINE
8
0
10
145
20
-85.56
11
145
21
-71.56
0
LINE
8
0
10
145
20
-71.56
11
131
21
-71.56
0
LINE
8
0
10
131
20
-71.56
11
131
21
-85.56
0
LINE
8
0
10
150
20
-137.81
11
164
21
-137.81
0
LINE
8
0
10
164
20
-137.81
11
164
21
-123.81
0
LINE
8
0
10
164
20
-123.81
11
150
21
-123.81
0
LINE
8
0
10
150
20
-123.81
11
150
21
-137.81
0
LINE
8
0
10
150
20
-118.81
11
164
21
-118.81
0
LINE
8
0
10
164
20
-118.81
11
164
21
-104.81
0
LINE
8
0
10
164
20
-104.81
11
150
21
-104.81
0
LINE
8
0
10
150
20
-104.81
11
150
21
-118.81
0
LINE
8
0
10
150
20
-99.81
11
164
21
-99.81
0
LINE
8
0
10
164
20
-99.81
11
164
21
-85.81
0
LINE
8
0
10
164
20
-85.81
11
150
21
-85.81
0
LINE
8
0
10
150
20
-85.81
11
150
21
-99.81
0
LINE
8
0
10
150
20
-80.81
11
164
21
-80.81
0
LINE
8
0
10
164
20
-80.81
11
164
21
-66.81
0
LINE
8
0
10
164
20
-66.81
11
150
21
-66.81
0
LINE
8
0
10
150
20
-66.81
11
150
21
-80.81
0
LINE
8
0
10
169
20
-142.56
11
183
21
-142.56
0
LINE
8
0
10
183
20
-142.56
11
183
21
-128.56
0
LINE
8
0
10
183
20
-128.56
11
169
21
-128.56
0
LINE
8
0
10
169
20
-128.56
11
169
21
-142.56
0
LINE
8
0
10
169
20
-123.56
11
183
21
-123.56
0
LINE
8
0
10
183
20
-123.56
11
183
21
-109.56
0
LINE
8
0
10
183
20
-109.56
11
169
21
-109.56
0
LINE
8
0
10
169
20
-109.56
11
169
21
-123.56
0
LINE
8
0
10
169
20
-104.56
11
183
21
-104.56
0
LINE
8
0
10
183
20
-104.56
11
183
21
-90.56
0
LINE
8
0
10
183
20
-90.56
11
169
21
-90.56
0
LINE
8
0
10
169
20
-90.56
11
169
21
-104.56
0
LINE
8
0
10
169
20
-85.56
11
183
21
-85.56
0
LINE
8
0
10
183
20
-85.56
11
183
21
-71.56
0
LINE
8
0
10
183
20
-71.56
11
169
21
-71.56
0
LINE
8
0
10
169
20
-71.56
11
169
21
-85.56
0
LINE
8
0
10
188
20
-145.41
11
202
21
-145.41
0
LINE
8
0
10
202
20
-145.41
11
202
21
-131.41
0
LINE
8
0
10
202
20
-131.41
11
188
21
-131.41
0
LINE
8
0
10
188
20
-131.41
11
188
21
-145.41
0
LINE
8
0
10
188
20
-126.41
11
202
21
-126.41
0
LINE
8
0
10
202
20
-126.41
11
202
21
-112.41
0
LINE
8
0
10
202
20
-112.41
11
188
21
-112.41
0
LINE
8
0
10
188
20
-112.41
11
188
21
-126.41
0
LINE
8
0
10
188
20
-107.41
11
202
21
-107.41
0
LINE
8
0
10
202
20
-107.41
11
202
21
-93.41
0
LINE
8
0
10
202
20
-93.41
11
188
21
-93.41
0
LINE
8
0
10
188
20
-93.41
11
188
21
-107.41
0
LINE
8
0
10
188
20
-88.41
11
202
21
-88.41
0
LINE
8
0
10
202
20
-88.41
11
202
21
-74.41
0
LINE
8
0
10
202
20
-74.41
11
188
21
-74.41
0
LINE
8
0
10
188
20
-74.41
11
188
21
-88.41
0
LINE
8
0
10
149.896883
20
-167.2291915
11
163.6841915
21
-164.798117
0
LINE
8
0
10
163.6841915
20
-164.798117
11
161.253117
21
-151.0108085
0
LINE
8
0
10
161.253117
20
-151.0108085
11
147.4658085
21
-153.441883
0
LINE
8
0
10
147.4658085
20
-153.441883
11
149.896883
21
-167.2291915
0
LINE
8
0
10
169
20
-164.41
11
183
21
-164.41
0
LINE
8
0
10
183
20
-164.41
11
183
21
-150.41
0
LINE
8
0
10
183
20
-150.41
11
169
21
-150.41
0
LINE
8
0
10
169
20
-150.41
11
169
21
-164.41
0
LINE
8
0
10
192.5
20
-164.41
11
206.5
21
-164.41
0
LINE
8
0
10
206.5
20
-164.41
11
206.5
21
-150.41
0
LINE
8
0
10
206.5
20
-150.41
11
192.5
21
-150.41
0
LINE
8
0
10
192.5
20
-150.41
11
192.5
21
-164.41
0
LINE
8
0
10
207
20
-145.41
11
221
21
-145.41
0
LINE
8
0
10
221
20
-145.41
11
221
21
-131.41
0
LINE
8
0
10
221
20
-131.41
11
207
21
-131.41
0
LINE
8
0
10
207
20
-131.41
11
207
21
-145.41
0
CIRCLE
8
0
10
109.5
20
-101.55
40
1.1
0
CIRCLE
8
0
10
109.5
20
-120.55
40
1.1
0
CIRCLE
8
0
10
109.5
20
-139.55
40
1.1
0
CIRCLE
8
0
10
156.2875
20
-144.965
40
1.1
0
CIRCLE
8
0
10
185.5
20
-89.485
40
1.1
0
CIRCLE
8
0
10
185.5
20
-108.485
40
1.1
0
CIRCLE
8
0
10
185.5
20
-127.485
40
1.1
0
ARC
8
0
10
204.5
20
-128.91
40
1.1
50
117.0356917
51
332.9643083
0
CIRCLE
8
0
10
204.5
20
-147.41
40
1.1
0
ENDSEC
0
EOF