0
SECTION
2
HEADER
9
$INSUNITS
70
4
0
ENDSEC
0
SECTION
2
TABLES
0
TABLE
2
LTYPE
0
LTYPE
72
65
70
64
2
CONTINUOUS
3
______
73
0
40
0
0
ENDTAB
0
TABLE
2
LAYER
0
ENDTAB
0
ENDSEC
0
SECTION
2
ENTITIES
0
LINE
8
0
10
93.5
20
-157
11
106.5
21
-157
0
LINE
8
0
10
106.5
20
-157
11
106.5
21
-143
0
LINE
8
0
10
106.5
20
-143
11
93.5
21
-143
0
LINE
8
0
10
93.5
20
-143
11
93.5
21
-157
0
LINE
8
0
10
93.5
20
-138
11
106.5
21
-138
0
LINE
8
0
10
106.5
20
-138
11
106.5
21
-124
0
LINE
8
0
10
106.5
20
-124
11
93.5
21
-124
0
LINE
8
0
10
93.5
20
-124
11
93.5
21
-138
0
LINE
8
0
10
93.5
20
-119
11
106.5
21
-119
0
LINE
8
0
10
106.5
20
-119
11
106.5
21
-105
0
LINE
8
0
10
106.5
20
-105
11
93.5
21
-105
0
LINE
8
0
10
93.5
20
-105
11
93.5
21
-119
0
LINE
8
0
10
93.5
20
-100
11
106.5
21
-100
0
LINE
8
0
10
106.5
20
-100
11
106.5
21
-86
0
LINE
8
0
10
106.5
20
-86
11
93.5
21
-86
0
LINE
8
0
10
93.5
20
-86
11
93.5
21
-100
0
LINE
8
0
10
112.5
20
-155.1
11
125.5
21
-155.1
0
LINE
8
0
10
125.5
20
-155.1
11
125.5
21
-141.1
0
LINE
8
0
10
125.5
20
-141.1
11
112.5
21
-141.1
0
LINE
8
0
10
112.5
20
-141.1
11
112.5
21
-155.1
0
LINE
8
0
10
112.5
20
-136.1
11
125.5
21
-136.1
0
LINE
8
0
10
125.5
20
-136.1
11
125.5
21
-122.1
0
LINE
8
0
10
125.5
20
-122.1
11
112.5
21
-122.1
0
LINE
8
0
10
112.5
20
-122.1
11
112.5
21
-136.1
0
LINE
8
0
10
112.5
20
-117.1
11
125.5
21
-117.1
0
LINE
8
0
10
125.5
20
-117.1
11
125.5
21
-103.1
0
LINE
8
0
10
125.5
20
-103.1
11
112.5
21
-103.1
0
LINE
8
0
10
112.5
20
-103.1
11
112.5
21
-117.1
0
LINE
8
0
10
112.5
20
-98.1
11
125.5
21
-98.1
0
LINE
8
0
10
125.5
20
-98.1
11
125.5
21
-84.1
0
LINE
8
0
10
125.5
20
-84.1
11
112.5
21
-84.1
0
LINE
8
0
10
112.5
20
-84.1
11
112.5
21
-98.1
0
LINE
8
0
10
131.5
20
-142.56
11
144.5
21
-142.56
0
LINE
8
0
10
144.5
20
-142.56
11
144.5
21
-128.56
0
LINE
8
0
10
144.5
20
-128.56
11
131.5
21
-128.56
0
LINE
8
0
10
131.5
20
-128.56
11
131.5
21
-142.56
0
LINE
8
0
10
131.5
20
-123.56
11
144.5
21
-123.56
0
LINE
8
0
10
144.5
20
-123.56
11
144.5
21
-109.56
0
LINE
8
0
10
144.5
20
-109.56
11
131.5
21
-109.56
0
LINE
8
0
10
131.5
20
-109.56
11
131.5
21
-123.56
0
LINE
8
0
10
131.5
20
-104.56
11
144.5
21
-104.56
0
LINE
8
0
10
144.5
20
-104.56
11
144.5
21
-90.56
0
LINE
8
0
10
144.5
20
-90.56
11
131.5
21
-90.56
0
LINE
8
0
10
131.5
20
-90.56
11
131.5
21
-104.56
0
LINE
8
0
10
131.5
20
-85.56
11
144.5
21
-85.56
0
LINE
8
0
10
144.5
20
-85.56
11
144.5
21
-71.56
0
LINE
8
0
10
144.5
20
-71.56
11
131.5
21
-71.56
0
LINE
8
0
10
131.5
20
-71.56
11
131.5
21
-85.56
0
LINE
8
0
10
150.5
20
-137.81
11
163.5
21
-137.81
0
LINE
8
0
10
163.5
20
-137.81
11
163.5
21
-123.81
0
LINE
8
0
10
163.5
20
-123.81
11
150.5
21
-123.81
0
LINE
8
0
10
150.5
20
-123.81
11
150.5
21
-137.81
0
LINE
8
0
10
150.5
20
-118.81
11
163.5
21
-118.81
0
LINE
8
0
10
163.5
20
-118.81
11
163.5
21
-104.81
0
LINE
8
0
10
163.5
20
-104.81
11
150.5
21
-104.81
0
LINE
8
0
10
150.5
20
-104.81
11
150.5
21
-118.81
0
LINE
8
0
10
150.5
20
-99.81
11
163.5
21
-99.81
0
LINE
8
0
10
163.5
20
-99.81
11
163.5
21
-85.81
0
LINE
8
0
10
163.5
20
-85.81
11
150.5
21
-85.81
0
LINE
8
0
10
150.5
20
-85.81
11
150.5
21
-99.81
0
LINE
8
0
10
150.5
20
-80.81
11
163.5
21
-80.81
0
LINE
8
0
10
163.5
20
-80.81
11
163.5
21
-66.81
0
LINE
8
0
10
163.5
20
-66.81
11
150.5
21
-66.81
0
LINE
8
0
10
150.5
20
-66.81
11
150.5
21
-80.81
0
LINE
8
0
10
169.5
20
-142.56
11
182.5
21
-142.56
0
LINE
8
0
10
182.5
20
-142.56
11
182.5
21
-128.56
0
LINE
8
0
10
182.5
20
-128.56
11
169.5
21
-128.56
0
LINE
8
0
10
169.5
20
-128.56
11
169.5
21
-142.56
0
LINE
8
0
10
169.5
20
-123.56
11
182.5
21
-123.56
0
LINE
8
0
10
182.5
20
-123.56
11
182.5
21
-109.56
0
LINE
8
0
10
182.5
20
-109.56
11
169.5
21
-109.56
0
LINE
8
0
10
169.5
20
-109.56
11
169.5
21
-123.56
0
LINE
8
0
10
169.5
20
-104.56
11
182.5
21
-104.56
0
LINE
8
0
10
182.5
20
-104.56
11
182.5
21
-90.56
0
LINE
8
0
10
182.5
20
-90.56
11
169.5
21
-90.56
0
LINE
8
0
10
169.5
20
-90.56
11
169.5
21
-104.56
0
LINE
8
0
10
169.5
20
-85.56
11
182.5
21
-85.56
0
LINE
8
0
10
182.5
20
-85.56
11
182.5
21
-71.56
0
LINE
8
0
10
182.5
20
-71.56
11
169.5
21
-71.56
0
LINE
8
0
10
169.5
20
-71.56
11
169.5
21
-85.56
0
LINE
8
0
10
188.5
20
-145.41
11
201.5
21
-145.41
0
LINE
8
0
10
201.5
20
-145.41
11
201.5
21
-131.41
0
LINE
8
0
10
201.5
20
-131.41
11
188.5
21
-131.41
0
LINE
8
0
10
188.5
20
-131.41
11
188.5
21
-145.41
0
LINE
8
0
10
188.5
20
-126.41
11
201.5
21
-126.41
0
LINE
8
0
10
201.5
20
-126.41
11
201.5
21
-112.41
0
LINE
8
0
10
201.5
20
-112.41
11
188.5
21
-112.41
0
LINE
8
0
10
188.5
20
-112.41
11
188.5
21
-126.41
0
LINE
8
0
10
188.5
20
-107.41
11
201.5
21
-107.41
0
LINE
8
0
10
201.5
20
-107.41
11
201.5
21
-93.41
0
LINE
8
0
10
201.5
20
-93.41
11
188.5
21
-93.41
0
LINE
8
0
10
188.5
20
-93.41
11
188.5
21
-107.41
0
LINE
8
0
10
188.5
20
-88.41
11
201.5
21
-88.41
0
LINE
8
0
10
201.5
20
-88.41
11
201.5
21
-74.41
0
LINE
8
0
10
201.5
20
-74.41
11
188.5
21
-74.41
0
LINE
8
0
10
188.5
20
-74.41
11
188.5
21
-88.41
0
LINE
8
0
10
150.3892868
20
-167.1423674
11
163.1917876
21
-164.8849411
0
LINE
8
0
10
163.1917876
20
-164.8849411
11
160.7607132
21
-151.0976326
0
LINE
8
0
10
160.7607132
20
-151.0976326
11
147.9582124
21
-153.3550589
0
LINE
8
0
10
147.9582124
20
-153.3550589
11
150.3892868
21
-167.1423674
0
LINE
8
0
10
169.5
20
-164.41
11
182.5
21
-164.41
0
LINE
8
0
10
182.5
20
-164.41
11
182.5
21
-150.41
0
LINE
8
0
10
182.5
20
-150.41
11
169.5
21
-150.41
0
LINE
8
0
10
169.5
20
-150.41
11
169.5
21
-164.41
0
LINE
8
0
10
193
20
-164.41
11
206
21
-164.41
0
LINE
8
0
10
206
20
-164.41
11
206
21
-150.41
0
LINE
8
0
10
206
20
-150.41
11
193
21
-150.41
0
LINE
8
0
10
193
20
-150.41
11
193
21
-164.41
0
LINE
8
0
10
207.5
20
-145.41
11
220.5
21
-145.41
0
LINE
8
0
10
220.5
20
-145.41
11
220.5
21
-131.41
0
LINE
8
0
10
220.5
20
-131.41
11
207.5
21
-131.41
0
LINE
8
0
10
207.5
20
-131.41
11
207.5
21
-145.41
0
LINE
8
0
10
207.5
20
-126.41
11
220.5
21
-126.41
0
LINE
8
0
10
220.5
20
-126.41
11
220.5
21
-112.41
0
LINE
8
0
10
220.5
20
-112.41
11
207.5
21
-112.41
0
LINE
8
0
10
207.5
20
-112.41
11
207.5
21
-126.41
0
ENDSEC
0
EOF