0
SECTION
2
HEADER
9
$INSUNITS
70
4
0
ENDSEC
0
SECTION
2
TABLES
0
TABLE
2
LTYPE
0
LTYPE
72
65
70
64
2
CONTINUOUS
3
______
73
0
40
0
0
ENDTAB
0
TABLE
2
LAYER
0
ENDTAB
0
ENDSEC
0
SECTION
2
ENTITIES
0
LINE
8
0
10
93.5
20
-156.5
11
106.5
21
-156.5
0
LINE
8
0
10
106.5
20
-156.5
11
106.5
21
-143.5
0
LINE
8
0
10
106.5
20
-143.5
11
93.5
21
-143.5
0
LINE
8
0
10
93.5
20
-143.5
11
93.5
21
-156.5
0
LINE
8
0
10
93.5
20
-137.5
11
106.5
21
-137.5
0
LINE
8
0
10
106.5
20
-137.5
11
106.5
21
-124.5
0
LINE
8
0
10
106.5
20
-124.5
11
93.5
21
-124.5
0
LINE
8
0
10
93.5
20
-124.5
11
93.5
21
-137.5
0
LINE
8
0
10
93.5
20
-118.5
11
106.5
21
-118.5
0
LINE
8
0
10
106.5
20
-118.5
11
106.5
21
-105.5
0
LINE
8
0
10
106.5
20
-105.5
11
93.5
21
-105.5
0
LINE
8
0
10
93.5
20
-105.5
11
93.5
21
-118.5
0
LINE
8
0
10
93.5
20
-99.5
11
106.5
21
-99.5
0
LINE
8
0
10
106.5
20
-99.5
11
106.5
21
-86.5
0
LINE
8
0
10
106.5
20
-86.5
11
93.5
21
-86.5
0
LINE
8
0
10
93.5
20
-86.5
11
93.5
21
-99.5
0
LINE
8
0
10
112.5
20
-154.6
11
125.5
21
-154.6
0
LINE
8
0
10
125.5
20
-154.6
11
125.5
21
-141.6
0
LINE
8
0
10
125.5
20
-141.6
11
112.5
21
-141.6
0
LINE
8
0
10
112.5
20
-141.6
11
112.5
21
-154.6
0
LINE
8
0
10
112.5
20
-135.6
11
125.5
21
-135.6
0
LINE
8
0
10
125.5
20
-135.6
11
125.5
21
-122.6
0
LINE
8
0
10
125.5
20
-122.6
11
112.5
21
-122.6
0
LINE
8
0
10
112.5
20
-122.6
11
112.5
21
-135.6
0
LINE
8
0
10
112.5
20
-116.6
11
125.5
21
-116.6
0
LINE
8
0
10
125.5
20
-116.6
11
125.5
21
-103.6
0
LINE
8
0
10
125.5
20
-103.6
11
112.5
21
-103.6
0
LINE
8
0
10
112.5
20
-103.6
11
112.5
21
-116.6
0
LINE
8
0
10
112.5
20
-97.6
11
125.5
21
-97.6
0
LINE
8
0
10
125.5
20
-97.6
11
125.5
21
-84.6
0
LINE
8
0
10
125.5
20
-84.6
11
112.5
21
-84.6
0
LINE
8
0
10
112.5
20
-84.6
11
112.5
21
-97.6
0
LINE
8
0
10
131.5
20
-142.06
11
144.5
21
-142.06
0
LINE
8
0
10
144.5
20
-142.06
11
144.5
21
-129.06
0
LINE
8
0
10
144.5
20
-129.06
11
131.5
21
-129.06
0
LINE
8
0
10
131.5
20
-129.06
11
131.5
21
-142.06
0
LINE
8
0
10
131.5
20
-123.06
11
144.5
21
-123.06
0
LINE
8
0
10
144.5
20
-123.06
11
144.5
21
-110.06
0
LINE
8
0
10
144.5
20
-110.06
11
131.5
21
-110.06
0
LINE
8
0
10
131.5
20
-110.06
11
131.5
21
-123.06
0
LINE
8
0
10
131.5
20
-104.06
11
144.5
21
-104.06
0
LINE
8
0
10
144.5
20
-104.06
11
144.5
21
-91.06
0
LINE
8
0
10
144.5
20
-91.06
11
131.5
21
-91.06
0
LINE
8
0
10
131.5
20
-91.06
11
131.5
21
-104.06
0
LINE
8
0
10
131.5
20
-85.06
11
144.5
21
-85.06
0
LINE
8
0
10
144.5
20
-85.06
11
144.5
21
-72.06
0
LINE
8
0
10
144.5
20
-72.06
11
131.5
21
-72.06
0
LINE
8
0
10
131.5
20
-72.06
11
131.5
21
-85.06
0
LINE
8
0
10
150.5
20
-137.31
11
163.5
21
-137.31
0
LINE
8
0
10
163.5
20
-137.31
11
163.5
21
-124.31
0
LINE
8
0
10
163.5
20
-124.31
11
150.5
21
-124.31
0
LINE
8
0
10
150.5
20
-124.31
11
150.5
21
-137.31
0
LINE
8
0
10
150.5
20
-118.31
11
163.5
21
-118.31
0
LINE
8
0
10
163.5
20
-118.31
11
163.5
21
-105.31
0
LINE
8
0
10
163.5
20
-105.31
11
150.5
21
-105.31
0
LINE
8
0
10
150.5
20
-105.31
11
150.5
21
-118.31
0
LINE
8
0
10
150.5
20
-99.31
11
163.5
21
-99.31
0
LINE
8
0
10
163.5
20
-99.31
11
163.5
21
-86.31
0
LINE
8
0
10
163.5
20
-86.31
11
150.5
21
-86.31
0
LINE
8
0
10
150.5
20
-86.31
11
150.5
21
-99.31
0
LINE
8
0
10
150.5
20
-80.31
11
163.5
21
-80.31
0
LINE
8
0
10
163.5
20
-80.31
11
163.5
21
-67.31
0
LINE
8
0
10
163.5
20
-67.31
11
150.5
21
-67.31
0
LINE
8
0
10
150.5
20
-67.31
11
150.5
21
-80.31
0
LINE
8
0
10
169.5
20
-142.06
11
182.5
21
-142.06
0
LINE
8
0
10
182.5
20
-142.06
11
182.5
21
-129.06
0
LINE
8
0
10
182.5
20
-129.06
11
169.5
21
-129.06
0
LINE
8
0
10
169.5
20
-129.06
11
169.5
21
-142.06
0
LINE
8
0
10
169.5
20
-123.06
11
182.5
21
-123.06
0
LINE
8
0
10
182.5
20
-123.06
11
182.5
21
-110.06
0
LINE
8
0
10
182.5
20
-110.06
11
169.5
21
-110.06
0
LINE
8
0
10
169.5
20
-110.06
11
169.5
21
-123.06
0
LINE
8
0
10
169.5
20
-104.06
11
182.5
21
-104.06
0
LINE
8
0
10
182.5
20
-104.06
11
182.5
21
-91.06
0
LINE
8
0
10
182.5
20
-91.06
11
169.5
21
-91.06
0
LINE
8
0
10
169.5
20
-91.06
11
169.5
21
-104.06
0
LINE
8
0
10
169.5
20
-85.06
11
182.5
21
-85.06
0
LINE
8
0
10
182.5
20
-85.06
11
182.5
21
-72.06
0
LINE
8
0
10
182.5
20
-72.06
11
169.5
21
-72.06
0
LINE
8
0
10
169.5
20
-72.06
11
169.5
21
-85.06
0
LINE
8
0
10
188.5
20
-144.91
11
201.5
21
-144.91
0
LINE
8
0
10
201.5
20
-144.91
11
201.5
21
-131.91
0
LINE
8
0
10
201.5
20
-131.91
11
188.5
21
-131.91
0
LINE
8
0
10
188.5
20
-131.91
11
188.5
21
-144.91
0
LINE
8
0
10
188.5
20
-125.91
11
201.5
21
-125.91
0
LINE
8
0
10
201.5
20
-125.91
11
201.5
21
-112.91
0
LINE
8
0
10
201.5
20
-112.91
11
188.5
21
-112.91
0
LINE
8
0
10
188.5
20
-112.91
11
188.5
21
-125.91
0
LINE
8
0
10
188.5
20
-106.91
11
201.5
21
-106.91
0
LINE
8
0
10
201.5
20
-106.91
11
201.5
21
-93.91
0
LINE
8
0
10
201.5
20
-93.91
11
188.5
21
-93.91
0
LINE
8
0
10
188.5
20
-93.91
11
188.5
21
-106.91
0
LINE
8
0
10
188.5
20
-87.91
11
201.5
21
-87.91
0
LINE
8
0
10
201.5
20
-87.91
11
201.5
21
-74.91
0
LINE
8
0
10
201.5
20
-74.91
11
188.5
21
-74.91
0
LINE
8
0
10
188.5
20
-74.91
11
188.5
21
-87.91
0
LINE
8
0
10
150.3024628
20
-166.6499635
11
163.1049635
21
-164.3925372
0
LINE
8
0
10
163.1049635
20
-164.3925372
11
160.8475372
21
-151.5900365
0
LINE
8
0
10
160.8475372
20
-151.5900365
11
148.0450365
21
-153.8474628
0
LINE
8
0
10
148.0450365
20
-153.8474628
11
150.3024628
21
-166.6499635
0
LINE
8
0
10
169.5
20
-163.91
11
182.5
21
-163.91
0
LINE
8
0
10
182.5
20
-163.91
11
182.5
21
-150.91
0
LINE
8
0
10
182.5
20
-150.91
11
169.5
21
-150.91
0
LINE
8
0
10
169.5
20
-150.91
11
169.5
21
-163.91
0
LINE
8
0
10
193
20
-163.91
11
206
21
-163.91
0
LINE
8
0
10
206
20
-163.91
11
206
21
-150.91
0
LINE
8
0
10
206
20
-150.91
11
193
21
-150.91
0
LINE
8
0
10
193
20
-150.91
11
193
21
-163.91
0
LINE
8
0
10
207.5
20
-144.91
11
220.5
21
-144.91
0
LINE
8
0
10
220.5
20
-144.91
11
220.5
21
-131.91
0
LINE
8
0
10
220.5
20
-131.91
11
207.5
21
-131.91
0
LINE
8
0
10
207.5
20
-131.91
11
207.5
21
-144.91
0
LINE
8
0
10
207.5
20
-125.91
11
220.5
21
-125.91
0
LINE
8
0
10
220.5
20
-125.91
11
220.5
21
-112.91
0
LINE
8
0
10
220.5
20
-112.91
11
207.5
21
-112.91
0
LINE
8
0
10
207.5
20
-112.91
11
207.5
21
-125.91
0
ENDSEC
0
EOF