0
SECTION
2
HEADER
9
$INSUNITS
70
4
0
ENDSEC
0
SECTION
2
TABLES
0
TABLE
2
LTYPE
0
LTYPE
72
65
70
64
2
CONTINUOUS
3
______
73
0
40
0
0
ENDTAB
0
TABLE
2
LAYER
0
ENDTAB
0
ENDSEC
0
SECTION
2
ENTITIES
0
LINE
8
0
10
87
20
-159
11
87
21
-84
0
ARC
8
0
10
91
20
-84
40
4
50
90
51
180
0
LINE
8
0
10
91
20
-80
11
106.5955911
21
-80
0
ARC
8
0
10
110
20
-82.1
40
4
50
90
51
148.3317567
0
LINE
8
0
10
110
20
-78.1
11
125
21
-78.1
0
LINE
8
0
10
125
20
-78.1
11
125
21
-69.56
0
ARC
8
0
10
129
20
-69.56
40
4
50
90
51
180
0
LINE
8
0
10
129
20
-65.56
11
144
21
-65.56
0
LINE
8
0
10
144
20
-65.56
11
144
21
-64.81
0
ARC
8
0
10
148
20
-64.81
40
4
50
90
51
180
0
LINE
8
0
10
148
20
-60.81
11
166
21
-60.81
0
ARC
8
0
10
166
20
-64.81
40
4
50
360
51
90
0
LINE
8
0
10
170
20
-64.81
11
170
21
-65.56
0
LINE
8
0
10
170
20
-65.56
11
185
21
-65.56
0
ARC
8
0
10
185
20
-69.56
40
4
50
376.7083435
51
90
0
LINE
8
0
10
188.8311226
20
-68.41
11
224
21
-68.41
0
ARC
8
0
10
224
20
-72.41
40
4
50
360
51
90
0
LINE
8
0
10
228
20
-72.41
11
228
21
-166.41
0
ARC
8
0
10
224
20
-166.41
40
4
50
270
51
0
0
LINE
8
0
10
166.8416355
20
-170.41
11
224
21
-170.41
0
LINE
8
0
10
166.8416355
20
-170.41
11
148.9528863
21
-173.4881687
0
ARC
8
0
10
148.2745638
20
-169.5461034
40
4
50
238.4551627
51
279.7634373
0
LINE
8
0
10
146.1819012
20
-172.9550275
11
126.8701935
21
-161.1
0
LINE
8
0
10
126.8701935
20
-161.1
11
112.4044089
21
-161.1
0
ARC
8
0
10
109
20
-159
40
4
50
270
51
328.3317567
0
LINE
8
0
10
109
20
-163
11
91
21
-163
0
ARC
8
0
10
91
20
-159
40
4
50
180
51
270
0
LINE
8
0
10
91
20
-159
11
91
21
-84
0
LINE
8
0
10
91
20
-84
11
110
21
-84
0
LINE
8
0
10
110
20
-84
11
110
21
-82.1
0
LINE
8
0
10
110
20
-82.1
11
129
21
-82.1
0
LINE
8
0
10
129
20
-82.1
11
129
21
-69.56
0
LINE
8
0
10
129
20
-69.56
11
148
21
-69.56
0
LINE
8
0
10
148
20
-69.56
11
148
21
-64.81
0
LINE
8
0
10
148
20
-64.81
11
166
21
-64.81
0
LINE
8
0
10
166
20
-64.81
11
166
21
-69.56
0
LINE
8
0
10
166
20
-69.56
11
185
21
-69.56
0
LINE
8
0
10
185
20
-69.56
11
185
21
-72.41
0
LINE
8
0
10
185
20
-72.41
11
224
21
-72.41
0
LINE
8
0
10
224
20
-72.41
11
224
21
-166.41
0
LINE
8
0
10
166.5
20
-166.41
11
224
21
-166.41
0
LINE
8
0
10
166.5
20
-166.41
11
148.2745638
21
-169.5461034
0
LINE
8
0
10
148.2745638
20
-169.5461034
11
128
21
-157.1
0
LINE
8
0
10
128
20
-157.1
11
109
21
-157.1
0
LINE
8
0
10
109
20
-157.1
11
109
21
-159
0
LINE
8
0
10
109
20
-159
11
91
21
-159
0
ENDSEC
0
EOF