0
SECTION
2
HEADER
9
$INSUNITS
70
4
0
ENDSEC
0
SECTION
2
TABLES
0
TABLE
2
LTYPE
0
LTYPE
72
65
70
64
2
CONTINUOUS
3
______
73
0
40
0
0
ENDTAB
0
TABLE
2
LAYER
0
ENDTAB
0
ENDSEC
0
SECTION
2
ENTITIES
0
LINE
8
0
10
89
20
-159
11
89
21
-84
0
ARC
8
0
10
91
20
-84
40
2
50
90
51
180
0
LINE
8
0
10
91
20
-82
11
107.2089429
21
-82
0
ARC
8
0
10
110
20
-82.1
40
2
50
90
51
158.4898114
0
LINE
8
0
10
110
20
-80.1
11
126
21
-80.1
0
LINE
8
0
10
127
20
-79.1
11
127
21
-69.56
0
ARC
8
0
10
129
20
-69.56
40
2
50
90
51
180
0
LINE
8
0
10
129
20
-67.56
11
145
21
-67.56
0
LINE
8
0
10
146
20
-66.56
11
146
21
-64.81
0
ARC
8
0
10
148
20
-64.81
40
2
50
90
51
180
0
LINE
8
0
10
148
20
-62.81
11
166
21
-62.81
0
ARC
8
0
10
166
20
-64.81
40
2
50
360
51
90
0
LINE
8
0
10
168
20
-64.81
11
168
21
-66.56
0
LINE
8
0
10
169
20
-67.56
11
185
21
-67.56
0
ARC
8
0
10
185
20
-69.56
40
2
50
360
51
90
0
LINE
8
0
10
187
20
-69.56
11
187
21
-70.41
0
LINE
8
0
10
187
20
-70.41
11
204
21
-70.41
0
ARC
8
0
10
204
20
-72.41
40
2
50
360
51
90
0
LINE
8
0
10
206
20
-72.41
11
206
21
-111.41
0
LINE
8
0
10
207
20
-112.41
11
222.85
21
-112.41
0
ARC
8
0
10
222.85
20
-114.41
40
2
50
360
51
90
0
LINE
8
0
10
224.85
20
-114.41
11
224.85
21
-166.41
0
ARC
8
0
10
222.85
20
-166.41
40
2
50
270
51
0
0
LINE
8
0
10
166.7562262
20
-168.41
11
222.85
21
-168.41
0
LINE
8
0
10
166.5866456
20
-168.4244837
11
148.6137251
21
-171.517136
0
ARC
8
0
10
148.2745638
20
-169.5461034
40
2
50
238.455162
51
279.7634373
0
LINE
8
0
10
147.2282325
20
-171.2505654
11
127.6758109
21
-159.247769
0
LINE
8
0
10
127.1526453
20
-159.1
11
111.7910571
21
-159.1
0
ARC
8
0
10
109
20
-159
40
2
50
270
51
338.4898114
0
LINE
8
0
10
109
20
-161
11
91
21
-161
0
ARC
8
0
10
91
20
-159
40
2
50
180
51
270
0
ARC
8
0
10
107.2089429
20
-81
40
1
50
270
51
338.4898114
0
ARC
8
0
10
126
20
-79.1
40
1
50
270
51
0
0
ARC
8
0
10
145
20
-66.56
40
1
50
270
51
0
0
ARC
8
0
10
169
20
-66.56
40
1
50
180
51
270
0
ARC
8
0
10
207
20
-111.41
40
1
50
180
51
270
0
ARC
8
0
10
166.7562262
20
-169.41
40
1
50
90
51
99.7634354
0
ARC
8
0
10
127.1526453
20
-160.1
40
1
50
58.4551644
51
90
0
ARC
8
0
10
111.7910571
20
-160.1
40
1
50
90
51
158.4898114
0
ENDSEC
0
EOF